<?xml version="1.0" standalone="no"?>
<!DOCTYPE svg PUBLIC "-//W3C//DTD SVG 20010904//EN"
 "http://www.w3.org/TR/2001/REC-SVG-20010904/DTD/svg10.dtd">
<svg version="1.0" xmlns="http://www.w3.org/2000/svg"
 width="512.000000pt" height="512.000000pt" viewBox="0 0 512.000000 512.000000"
 preserveAspectRatio="xMidYMid meet">

<g transform="translate(0.000000,512.000000) scale(0.100000,-0.100000)"
fill="#000000" stroke="none">
<path d="M2315 5109 c-1142 -118 -2064 -961 -2270 -2074 -97 -525 -31 -1052
192 -1541 319 -699 952 -1224 1701 -1414 231 -58 363 -74 622 -74 259 0 389
16 625 75 926 232 1661 985 1869 1912 48 215 59 316 60 562 0 234 -8 332 -45
515 -99 491 -351 956 -709 1310 -389 385 -880 629 -1440 715 -126 19 -477 28
-605 14z m525 -373 c633 -86 1190 -430 1540 -954 91 -137 207 -373 258 -527
137 -411 149 -856 36 -1270 -56 -204 -168 -453 -274 -610 l-53 -79 -23 86
c-125 469 -447 885 -872 1124 l-82 47 25 31 c125 153 201 314 240 507 24 118
17 360 -15 479 -31 118 -115 289 -189 387 -310 410 -864 546 -1336 329 -116
-54 -215 -124 -315 -227 -210 -213 -313 -464 -313 -764 0 -258 73 -470 233
-679 l49 -64 -94 -53 c-312 -176 -582 -466 -740 -794 -48 -100 -106 -260 -125
-347 -7 -32 -16 -58 -19 -58 -4 0 -30 37 -58 83 -218 347 -327 701 -340 1102
-12 380 60 715 222 1044 329 662 943 1104 1675 1206 129 18 439 18 570 1z
m-101 -732 c103 -26 232 -98 313 -174 402 -375 274 -1020 -242 -1219 -262
-101 -553 -37 -761 169 -95 94 -146 175 -187 298 -23 68 -26 93 -26 217 0 124
3 149 26 217 91 272 317 466 593 507 73 11 209 4 284 -15z m-555 -1738 c142
-54 245 -69 416 -63 152 5 240 23 363 73 l61 24 54 -20 c188 -71 351 -178 508
-334 260 -261 409 -581 429 -926 l6 -95 -81 -65 c-325 -261 -708 -423 -1122
-476 -159 -20 -449 -15 -598 10 -390 67 -727 218 -1038 465 l-84 66 5 95 c27
461 305 910 716 1153 60 35 252 126 270 127 2 0 44 -15 95 -34z"/>
</g>
</svg>
